<svg width="91" height="87" xmlns="http://www.w3.org/2000/svg"><g fill="#616161" fill-rule="evenodd"><path d="M24.379 22.713c6.447-7.322 16.079-11.658 26.518-10.928C68.74 13.032 82.187 28.61 80.93 46.577 79.674 64.545 64.19 78.1 46.347 76.852c-17.844-1.248-31.29-16.825-30.034-34.793a33.01 33.01 0 01.318-2.821l-4.509-22.862 12.257 6.337zm-1.736-10.955c8.505-6.902 19.664-10.47 31.353-9.035 22.923 2.814 39.209 23.803 36.375 46.88-2.833 23.076-23.713 39.502-46.636 36.687C20.813 83.476 4.527 62.487 7.361 39.41c.112-.918.254-1.825.423-2.722L.62.373l22.023 11.385z"/><path d="M51.614 51.89l9.098 7.194c.587-.561 1.443-2.778.88-3.234l-6.819-5.565c-.564-.456-2.573 1.043-3.159 1.605zm6.689 9.946c.873-.465 1.309-.951 1.46-1.472l-9.413-7.506c-2.665 1.42-6.284-2.146-7.561-4.362l-1.25-2.166c-1.277-2.216-2.505-7.056.16-8.476l-1.633-11.641c-.504-.114-1.122-.003-1.93.428l-3.668 1.955c-2.664 1.42-1.782 9.38-1.666 12.425 0 0 .417 5.1 2.846 9.313 2.607 4.521 7.239 8.179 7.239 8.179 2.29 1.781 9.18 6.646 11.845 5.226l3.57-1.903zM41.715 26.175c.806-.18 3.216.296 3.32.997l1.295 8.508c.104.701-2.284 1.545-3.09 1.725l-1.525-11.23z"/></g></svg>