<?xml version="1.0" encoding="UTF-8" standalone="no"?>
<svg width="91px" height="87px" viewBox="0 0 91 87" version="1.1" xmlns="http://www.w3.org/2000/svg" xmlns:xlink="http://www.w3.org/1999/xlink" xmlns:sketch="http://www.bohemiancoding.com/sketch/ns">
    <!-- Generator: Sketch 3.3.3 (12072) - http://www.bohemiancoding.com/sketch -->
    <title>Oval 208 Copy 7 + emblem 4 copy 3 Copy</title>
    <desc>Created with Sketch.</desc>
    <defs></defs>
    <g id="logos" stroke="none" stroke-width="1" fill="none" fill-rule="evenodd" sketch:type="MSPage">
        <g id="Artboard-65" sketch:type="MSArtboardGroup" transform="translate(-581.000000, -273.000000)" fill="#616161">
            <g id="Oval-208-Copy-7-+-emblem-4-copy-3-Copy" sketch:type="MSLayerGroup" transform="translate(581.000000, 273.000000)">
                <path d="M24.3787957,22.7127565 C30.8262479,15.3907249 40.4575657,11.0546734 50.8966004,11.7846418 C68.7403905,13.0324011 82.187104,28.6096604 80.9306756,46.5774241 C79.6742471,64.5451878 64.1904607,78.0994294 46.3466705,76.8516701 C28.5028804,75.6039107 15.056167,60.0266515 16.3125954,42.0588878 C16.3792581,41.1055671 16.4859718,40.1646707 16.6309642,39.2377505 L12.122458,16.3756981 L24.3787957,22.7127565 Z M22.6434287,11.7579547 C31.1481101,4.85555263 42.3065111,1.28720072 53.99628,2.72252387 C76.9189692,5.5370762 93.2045202,26.5259613 90.3710762,49.6025109 C87.5376322,72.6790605 66.6581608,89.1046546 43.7354716,86.2901023 C20.8127824,83.47555 4.52723144,62.4866649 7.36067544,39.4101153 C7.4733944,38.492093 7.61467259,37.5845964 7.78350249,36.688418 L0.620382723,0.372660931 L22.6434287,11.7579547 L22.6434287,11.7579547 Z" id="Oval-208-Copy-7" sketch:type="MSShapeGroup"></path>
                <path d="M51.6141265,51.8897302 L60.7124823,59.0844246 C61.2985994,58.5225186 62.1550072,56.3056191 61.5912989,55.8496881 L54.7731958,50.2849739 C54.2092387,49.8286114 52.1998652,51.3277439 51.6141265,51.8897302 L51.6141265,51.8897302 L51.6141265,51.8897302 Z M58.3028032,61.8358507 C59.1755229,61.3707877 59.6119451,60.8849865 59.7620759,60.3644987 L50.3500371,52.857844 C47.6851433,54.2779375 44.0664067,50.7118269 42.7887616,48.4959617 L41.5397243,46.3297119 C40.262328,44.1142782 39.033924,39.2738208 41.6988177,37.8537272 L40.0655912,26.2128242 C39.5616594,26.0989715 38.9444435,26.2101749 38.1356005,26.6414808 L34.4684506,28.5956659 C31.8035569,30.0157594 32.6862251,37.9766445 32.8018144,41.0212831 C32.8018144,41.0212831 33.218544,46.1205609 35.648209,50.3344151 C38.254993,54.8554531 42.887021,58.5129905 42.887021,58.5129905 C45.1767466,60.2941509 52.0672769,65.1586963 54.7321707,63.7386028 L58.3028032,61.8358507 L58.3028032,61.8358507 Z M41.7150252,26.1746288 C42.5212973,25.9945454 44.9307305,26.4711129 45.0342037,27.1722984 L46.3299926,35.679795 C46.4337145,36.3814119 44.0464705,37.2251902 43.240328,37.4049225 L41.7150252,26.1746288 L41.7150252,26.1746288 Z" id="emblem-4-copy-3" sketch:type="MSShapeGroup"></path>
            </g>
        </g>
    </g>
</svg>